<?xml version="1.0" standalone="no"?>
<!DOCTYPE svg PUBLIC "-//W3C//DTD SVG 20010904//EN"
 "http://www.w3.org/TR/2001/REC-SVG-20010904/DTD/svg10.dtd">
<svg version="1.0" xmlns="http://www.w3.org/2000/svg"
 width="443.000000pt" height="443.000000pt" viewBox="0 0 443.000000 443.000000"
 preserveAspectRatio="xMidYMid meet">
<metadata>
Created by potrace 1.14, written by Peter Selinger 2001-2017
</metadata>
<g transform="translate(0.000000,443.000000) scale(0.100000,-0.100000)"
fill="#000000" stroke="none">
<path d="M2615 4244 c-82 -41 -174 -79 -202 -85 -77 -15 -491 -175 -928 -359
-93 -40 -248 -103 -344 -142 -96 -38 -207 -85 -248 -104 l-73 -35 15 -37 c9
-20 70 -140 137 -267 67 -126 170 -324 231 -440 166 -320 205 -393 327 -615
62 -113 151 -277 198 -365 47 -88 125 -229 174 -314 67 -117 86 -156 76 -163
-25 -17 -107 -58 -116 -58 -9 0 -73 118 -145 267 -17 34 -36 64 -43 67 -22 8
-114 -23 -209 -72 -69 -36 -108 -64 -167 -124 -43 -43 -82 -78 -87 -78 -6 0
-22 16 -38 36 l-27 36 32 62 c40 77 66 105 140 150 54 33 249 116 271 116 25
0 14 28 -71 176 -50 87 -97 173 -104 191 -8 17 -27 54 -43 82 -33 54 -202 373
-286 536 -28 55 -67 123 -87 152 l-35 51 -42 -25 c-23 -13 -39 -29 -36 -34 4
-5 -2 -9 -12 -9 -48 -1 -153 -49 -225 -104 -70 -53 -81 -58 -113 -52 -46 9
-50 19 -30 71 27 72 105 135 236 190 62 26 128 49 146 52 18 3 33 8 33 12 1 9
-209 423 -226 445 -12 17 -20 15 -131 -35 -101 -46 -127 -62 -184 -119 -112
-112 -135 -203 -83 -330 32 -80 88 -191 122 -244 15 -23 77 -142 139 -266 61
-124 147 -290 189 -370 43 -80 134 -262 203 -405 70 -143 139 -282 154 -310
16 -27 42 -81 58 -118 16 -38 53 -110 83 -160 80 -138 95 -171 113 -250 29
-130 132 -304 224 -379 53 -43 76 -55 137 -74 45 -13 142 -20 142 -9 0 3 -23
39 -51 81 -39 57 -62 80 -99 99 -26 13 -60 35 -77 49 -39 33 -82 114 -89 169
-20 141 53 212 318 311 54 20 151 59 215 88 65 28 253 98 418 154 165 56 343
120 395 142 52 22 142 60 200 84 58 25 159 68 225 96 175 75 383 155 521 200
152 50 172 61 223 118 76 86 74 177 -7 315 -27 46 -73 129 -102 184 -30 55
-79 141 -110 190 -31 50 -94 158 -140 240 -45 83 -133 238 -195 345 -61 107
-133 236 -160 285 -61 115 -251 452 -387 687 -73 127 -126 130 -343 22z m242
-146 c61 -89 86 -136 78 -148 -3 -5 -21 -12 -39 -16 -43 -8 -82 16 -89 55 -9
42 -50 55 -144 47 -42 -4 -81 -8 -87 -9 -5 -1 -19 15 -30 36 -24 43 -17 53 44
62 19 3 69 14 110 24 41 10 82 19 91 20 10 1 37 -29 66 -71z m-21 -340 c4 -18
7 -39 5 -46 -2 -12 80 -165 120 -222 9 -14 22 -44 29 -67 25 -84 -32 -167
-136 -199 -55 -16 -132 -18 -170 -4 -23 9 -26 14 -20 42 3 18 16 42 28 55 21
23 22 23 40 3 24 -26 73 -26 116 0 35 22 41 48 17 90 -11 21 -15 22 -20 9 -3
-9 -34 -29 -67 -44 -48 -22 -70 -26 -105 -21 -59 8 -97 29 -130 73 -23 30 -28
48 -31 108 -5 85 3 104 61 146 38 28 47 30 94 24 48 -6 52 -5 55 17 2 16 17
30 48 46 24 12 47 22 51 22 4 0 11 -15 15 -32z m-948 -210 c6 -7 25 -49 42
-93 17 -44 40 -93 50 -110 10 -16 30 -59 44 -94 31 -76 51 -101 82 -101 24 0
70 -48 57 -61 -12 -11 -161 -69 -179 -69 -13 0 -15 7 -11 33 6 40 -26 130 -99
283 -43 89 -61 117 -85 129 -16 9 -34 13 -39 10 -5 -3 -11 -1 -14 4 -10 15 27
50 69 65 51 18 70 19 83 4z m482 -8 c20 -5 56 -30 83 -58 38 -38 48 -56 53
-94 13 -94 -19 -159 -98 -199 -153 -78 -308 13 -308 181 0 77 19 114 73 142
72 37 134 46 197 28z m-694 -136 c31 -8 46 -50 45 -126 l0 -68 49 0 c40 0 52
-4 69 -26 11 -14 23 -41 27 -60 22 -118 -66 -200 -289 -269 -85 -27 -88 -27
-102 -9 -20 27 -18 51 6 67 20 15 19 17 -61 177 -75 149 -83 162 -105 158 -31
-6 -42 1 -46 31 -4 23 4 28 96 63 156 60 249 79 311 62z m997 -643 c4 -1 7
-18 7 -40 l0 -38 -67 -6 c-99 -9 -159 -33 -214 -86 -70 -69 -86 -146 -51 -258
62 -198 195 -254 388 -163 l63 31 -26 72 c-47 131 -35 118 -90 97 -91 -34 -90
-34 -102 1 -6 18 -11 35 -11 39 0 12 211 83 219 74 9 -10 111 -286 111 -301 0
-14 -94 -73 -171 -105 -64 -28 -86 -32 -164 -32 -74 -1 -97 3 -131 21 -67 36
-129 113 -165 206 -28 73 -31 90 -27 162 7 132 67 219 193 280 51 25 172 53
210 49 11 -1 23 -3 28 -3z m-2028 -111 c-8 -13 1 -13 25 0 16 9 18 8 13 -6 -4
-12 -3 -15 5 -10 7 4 12 2 12 -3 0 -6 -4 -11 -9 -11 -5 0 -21 -20 -35 -45 -31
-53 -52 -58 -58 -14 -6 36 20 99 40 99 7 0 10 -4 7 -10z m3165 -252 c19 -44
36 -131 44 -230 5 -53 3 -59 -25 -86 -36 -35 -109 -72 -146 -75 -25 -2 -28 2
-31 31 -2 17 8 76 22 130 13 53 28 125 32 160 12 111 69 149 104 70z"/>
<path d="M2680 3633 c-26 -10 -80 -66 -80 -85 0 -20 54 -76 92 -97 24 -12 31
-11 64 6 50 25 64 50 53 89 -19 66 -77 106 -129 87z"/>
<path d="M2230 3432 l-34 -29 17 -45 c25 -65 58 -93 109 -91 47 2 73 22 82 64
7 37 -6 70 -41 103 -39 36 -88 35 -133 -2z"/>
<path d="M1510 3307 c-42 -14 -50 -48 -25 -97 16 -30 19 -32 58 -26 49 8 77
36 77 78 0 24 -6 32 -35 44 -19 7 -36 14 -37 13 -2 0 -19 -5 -38 -12z"/>
<path d="M1619 3121 c-14 -5 -35 -14 -47 -20 l-22 -12 25 -49 c13 -27 29 -51
34 -55 12 -7 102 21 127 40 20 14 23 67 4 89 -13 17 -75 20 -121 7z"/>
<path d="M3915 1766 c-82 -35 -267 -109 -410 -165 -143 -56 -323 -129 -400
-161 -186 -78 -509 -205 -614 -241 -110 -38 -134 -53 -125 -82 3 -12 7 -23 9
-25 10 -12 300 74 405 121 19 9 100 41 180 72 80 31 174 69 210 85 36 16 108
45 160 65 52 20 127 49 165 65 98 40 354 139 390 152 17 6 80 33 142 60 114
51 138 74 108 104 -23 24 -65 14 -220 -50z"/>
<path d="M4050 1614 c-47 -20 -148 -59 -225 -88 -77 -29 -183 -71 -235 -94
-79 -34 -527 -213 -865 -344 -44 -17 -129 -53 -190 -79 -99 -42 -110 -49 -107
-70 1 -13 6 -27 10 -31 16 -16 194 42 482 156 162 65 381 152 485 193 105 42
213 85 240 98 69 30 297 117 430 163 100 34 110 40 113 64 4 34 -14 68 -36 68
-9 0 -55 -16 -102 -36z"/>
<path d="M4265 1528 c-11 -6 -22 -14 -25 -18 -12 -14 -398 -175 -880 -366
-333 -132 -472 -188 -630 -254 -131 -55 -278 -113 -392 -157 -38 -14 -68 -31
-68 -39 0 -7 15 -42 33 -77 29 -57 35 -64 52 -55 10 6 68 30 129 54 61 23 188
74 281 112 327 134 653 266 1094 443 269 108 454 187 467 201 34 34 52 110 34
143 -15 28 -58 34 -95 13z"/>
<path d="M1875 924 c-193 -79 -196 -81 -188 -100 9 -23 145 -272 194 -354 21
-36 56 -112 77 -170 67 -177 73 -191 90 -188 17 3 30 34 56 129 9 31 25 68 36
82 l21 26 44 -30 c60 -40 153 -81 179 -77 31 4 19 48 -48 168 -14 25 -48 92
-76 150 -101 205 -223 420 -239 419 -9 0 -74 -25 -146 -55z"/>
</g>
</svg>
